<svg width="123" height="56" viewBox="0 0 123 56" fill="none" xmlns="http://www.w3.org/2000/svg">
<g filter="url(#filter0_d_1_431)">
<path d="M2.57812 44V9.875H13.5703C16.5859 9.875 19.2969 10.5625 21.7031 11.9375C24.1094 13.2969 25.9844 15.2266 27.3281 17.7266C28.6875 20.2109 29.375 23 29.3906 26.0938V27.6641C29.3906 30.7891 28.7266 33.5938 27.3984 36.0781C26.0859 38.5469 24.2266 40.4844 21.8203 41.8906C19.4297 43.2812 16.7578 43.9844 13.8047 44H2.57812ZM10.8047 16.2266V37.6719H13.6641C16.0234 37.6719 17.8359 36.8359 19.1016 35.1641C20.3672 33.4766 21 30.9766 21 27.6641V26.1875C21 22.8906 20.3672 20.4062 19.1016 18.7344C17.8359 17.0625 15.9922 16.2266 13.5703 16.2266H10.8047Z" fill="#85171A"/>
<path d="M48.8109 34.9297C48.8109 33.7266 48.3813 32.7891 47.5219 32.1172C46.6781 31.4453 45.1859 30.75 43.0453 30.0312C40.9047 29.3125 39.1547 28.6172 37.7953 27.9453C33.3734 25.7734 31.1625 22.7891 31.1625 18.9922C31.1625 17.1016 31.7094 15.4375 32.8031 14C33.9125 12.5469 35.475 11.4219 37.4906 10.625C39.5063 9.8125 41.7719 9.40625 44.2875 9.40625C46.7406 9.40625 48.9359 9.84375 50.8734 10.7188C52.8266 11.5937 54.3422 12.8438 55.4203 14.4688C56.4984 16.0781 57.0375 17.9219 57.0375 20H48.8344C48.8344 18.6094 48.4047 17.5312 47.5453 16.7656C46.7016 16 45.5531 15.6172 44.1 15.6172C42.6313 15.6172 41.4672 15.9453 40.6078 16.6016C39.7641 17.2422 39.3422 18.0625 39.3422 19.0625C39.3422 19.9375 39.8109 20.7344 40.7484 21.4531C41.6859 22.1562 43.3344 22.8906 45.6938 23.6562C48.0531 24.4062 49.9906 25.2188 51.5063 26.0938C55.1938 28.2188 57.0375 31.1484 57.0375 34.8828C57.0375 37.8672 55.9125 40.2109 53.6625 41.9141C51.4125 43.6172 48.3266 44.4688 44.4047 44.4688C41.6391 44.4688 39.1313 43.9766 36.8813 42.9922C34.6469 41.9922 32.9594 40.6328 31.8188 38.9141C30.6938 37.1797 30.1313 35.1875 30.1313 32.9375H38.3813C38.3813 34.7656 38.85 36.1172 39.7875 36.9922C40.7406 37.8516 42.2797 38.2812 44.4047 38.2812C45.7641 38.2812 46.8344 37.9922 47.6156 37.4141C48.4125 36.8203 48.8109 35.9922 48.8109 34.9297Z" fill="#DC2025"/>
<path d="M67.6219 44H59.4188V9.875H67.6219V44Z" fill="#FEBA08"/>
<path d="M71.7227 18V10.8906H73.8223C74.4505 10.8906 75.0072 11.0306 75.4922 11.3105C75.9805 11.5905 76.3581 11.9876 76.625 12.502C76.8919 13.0163 77.0254 13.6055 77.0254 14.2695V14.626C77.0254 15.2998 76.8903 15.8923 76.6201 16.4033C76.3532 16.9144 75.9707 17.3083 75.4727 17.585C74.9779 17.8617 74.4098 18 73.7686 18H71.7227ZM72.958 11.8867V17.0137H73.7637C74.4115 17.0137 74.9079 16.8118 75.2529 16.4082C75.6012 16.0013 75.7786 15.4186 75.7852 14.6602V14.2646C75.7852 13.4932 75.6175 12.904 75.2822 12.4971C74.9469 12.0902 74.4603 11.8867 73.8223 11.8867H72.958ZM84.482 16.2422L85.5758 10.8906H86.8014L85.1607 18H83.9791L82.6266 12.8096L81.2447 18H80.0582L78.4176 10.8906H79.6432L80.7467 16.2324L82.1041 10.8906H83.1393L84.482 16.2422ZM89.6584 18H88.4279V10.8906H89.6584V18ZM91.827 18V10.8906H93.9266C94.5548 10.8906 95.1115 11.0306 95.5965 11.3105C96.0848 11.5905 96.4624 11.9876 96.7293 12.502C96.9962 13.0163 97.1297 13.6055 97.1297 14.2695V14.626C97.1297 15.2998 96.9946 15.8923 96.7244 16.4033C96.4575 16.9144 96.075 17.3083 95.577 17.585C95.0822 17.8617 94.5141 18 93.8729 18H91.827ZM93.0623 11.8867V17.0137H93.868C94.5158 17.0137 95.0122 16.8118 95.3572 16.4082C95.7055 16.0013 95.8829 15.4186 95.8895 14.6602V14.2646C95.8895 13.4932 95.7218 12.904 95.3865 12.4971C95.0512 12.0902 94.5646 11.8867 93.9266 11.8867H93.0623ZM102.882 16.3447H100.128L99.5521 18H98.268L100.954 10.8906H102.062L104.752 18H103.463L102.882 16.3447ZM100.475 15.3486H102.536L101.505 12.3994L100.475 15.3486ZM109.929 16.1689C109.929 15.8564 109.818 15.6156 109.597 15.4463C109.379 15.277 108.983 15.1061 108.41 14.9336C107.837 14.7611 107.382 14.569 107.043 14.3574C106.395 13.9505 106.071 13.4199 106.071 12.7656C106.071 12.1927 106.304 11.7207 106.77 11.3496C107.238 10.9785 107.845 10.793 108.591 10.793C109.086 10.793 109.527 10.8841 109.914 11.0664C110.301 11.2487 110.606 11.5091 110.827 11.8477C111.049 12.1829 111.159 12.5557 111.159 12.9658H109.929C109.929 12.5947 109.812 12.305 109.577 12.0967C109.346 11.8851 109.014 11.7793 108.581 11.7793C108.177 11.7793 107.863 11.8656 107.639 12.0381C107.417 12.2106 107.307 12.4515 107.307 12.7607C107.307 13.0212 107.427 13.2393 107.668 13.415C107.909 13.5876 108.306 13.7568 108.859 13.9229C109.413 14.0856 109.857 14.2728 110.192 14.4844C110.528 14.6927 110.773 14.9336 110.93 15.207C111.086 15.4772 111.164 15.7946 111.164 16.1592C111.164 16.7516 110.936 17.2236 110.48 17.5752C110.028 17.9235 109.413 18.0977 108.635 18.0977C108.12 18.0977 107.647 18.0033 107.214 17.8145C106.784 17.6224 106.449 17.3587 106.208 17.0234C105.97 16.6882 105.852 16.2975 105.852 15.8516H107.087C107.087 16.2552 107.22 16.5677 107.487 16.7891C107.754 17.0104 108.137 17.1211 108.635 17.1211C109.064 17.1211 109.387 17.0348 109.602 16.8623C109.82 16.6865 109.929 16.4554 109.929 16.1689ZM116.878 16.3447H114.124L113.547 18H112.263L114.949 10.8906H116.057L118.748 18H117.459L116.878 16.3447ZM114.47 15.3486H116.531L115.501 12.3994L114.47 15.3486Z" fill="black" fill-opacity="0.6"/>
<path d="M75.4629 28.1689C75.4629 28.0225 75.4401 27.8923 75.3945 27.7783C75.3522 27.6644 75.2757 27.5602 75.165 27.4658C75.0544 27.3714 74.8981 27.2803 74.6963 27.1924C74.4977 27.1012 74.2438 27.0085 73.9346 26.9141C73.596 26.8099 73.2835 26.6943 72.9971 26.5674C72.7139 26.4372 72.4665 26.2874 72.2549 26.1182C72.0433 25.9456 71.8789 25.7487 71.7617 25.5273C71.6445 25.3027 71.5859 25.0439 71.5859 24.751C71.5859 24.4613 71.6462 24.1976 71.7666 23.96C71.8903 23.7223 72.0645 23.5173 72.2891 23.3447C72.5169 23.1689 72.7855 23.0339 73.0947 22.9395C73.404 22.8418 73.7458 22.793 74.1201 22.793C74.6475 22.793 75.1016 22.8906 75.4824 23.0859C75.8665 23.2812 76.1611 23.5433 76.3662 23.8721C76.5745 24.2008 76.6787 24.5638 76.6787 24.9609H75.4629C75.4629 24.7266 75.4124 24.5199 75.3115 24.3408C75.2139 24.1585 75.0641 24.0153 74.8623 23.9111C74.6637 23.807 74.4115 23.7549 74.1055 23.7549C73.8158 23.7549 73.5749 23.7988 73.3828 23.8867C73.1908 23.9746 73.0475 24.0934 72.9531 24.2432C72.8587 24.3929 72.8115 24.5622 72.8115 24.751C72.8115 24.8844 72.8424 25.0065 72.9043 25.1172C72.9661 25.2246 73.0605 25.3255 73.1875 25.4199C73.3145 25.5111 73.474 25.5973 73.666 25.6787C73.8581 25.7601 74.0843 25.8382 74.3447 25.9131C74.7386 26.0303 75.082 26.1605 75.375 26.3037C75.668 26.4437 75.9121 26.6032 76.1074 26.7822C76.3027 26.9613 76.4492 27.1647 76.5469 27.3926C76.6445 27.6172 76.6934 27.8727 76.6934 28.1592C76.6934 28.4587 76.6331 28.7288 76.5127 28.9697C76.3923 29.2074 76.2197 29.4108 75.9951 29.5801C75.7738 29.7461 75.5068 29.8747 75.1943 29.9658C74.8851 30.0537 74.54 30.0977 74.1592 30.0977C73.8174 30.0977 73.4805 30.0521 73.1484 29.9609C72.8197 29.8698 72.5202 29.7314 72.25 29.5459C71.9798 29.3571 71.765 29.1227 71.6055 28.8428C71.446 28.5596 71.3662 28.2292 71.3662 27.8516H72.5918C72.5918 28.0827 72.6309 28.2796 72.709 28.4424C72.7904 28.6051 72.9027 28.7386 73.0459 28.8428C73.1891 28.9437 73.3551 29.0186 73.5439 29.0674C73.736 29.1162 73.9411 29.1406 74.1592 29.1406C74.4456 29.1406 74.6849 29.0999 74.877 29.0186C75.0723 28.9372 75.2188 28.8232 75.3164 28.6768C75.4141 28.5303 75.4629 28.361 75.4629 28.1689ZM80.6959 23.8379L78.5719 30H77.2877L79.9635 22.8906H80.7838L80.6959 23.8379ZM82.4732 30L80.3443 23.8379L80.2516 22.8906H81.0768L83.7623 30H82.4732ZM82.3707 27.3633V28.335H78.5035V27.3633H82.3707ZM85.2063 22.8906H86.3L88.3557 28.374L90.4064 22.8906H91.5002L88.7854 30H87.9162L85.2063 22.8906ZM84.7082 22.8906H85.7482L85.9289 27.6367V30H84.7082V22.8906ZM90.9582 22.8906H92.0031V30H90.7775V27.6367L90.9582 22.8906ZM97.3484 28.1689C97.3484 28.0225 97.3257 27.8923 97.2801 27.7783C97.2378 27.6644 97.1613 27.5602 97.0506 27.4658C96.9399 27.3714 96.7837 27.2803 96.5818 27.1924C96.3833 27.1012 96.1294 27.0085 95.8201 26.9141C95.4816 26.8099 95.1691 26.6943 94.8826 26.5674C94.5994 26.4372 94.352 26.2874 94.1404 26.1182C93.9288 25.9456 93.7645 25.7487 93.6473 25.5273C93.5301 25.3027 93.4715 25.0439 93.4715 24.751C93.4715 24.4613 93.5317 24.1976 93.6521 23.96C93.7758 23.7223 93.95 23.5173 94.1746 23.3447C94.4025 23.1689 94.671 23.0339 94.9803 22.9395C95.2895 22.8418 95.6313 22.793 96.0057 22.793C96.533 22.793 96.9871 22.8906 97.368 23.0859C97.7521 23.2812 98.0467 23.5433 98.2518 23.8721C98.4601 24.2008 98.5643 24.5638 98.5643 24.9609H97.3484C97.3484 24.7266 97.298 24.5199 97.1971 24.3408C97.0994 24.1585 96.9497 24.0153 96.7479 23.9111C96.5493 23.807 96.297 23.7549 95.991 23.7549C95.7013 23.7549 95.4604 23.7988 95.2684 23.8867C95.0763 23.9746 94.9331 24.0934 94.8387 24.2432C94.7443 24.3929 94.6971 24.5622 94.6971 24.751C94.6971 24.8844 94.728 25.0065 94.7898 25.1172C94.8517 25.2246 94.9461 25.3255 95.073 25.4199C95.2 25.5111 95.3595 25.5973 95.5516 25.6787C95.7436 25.7601 95.9699 25.8382 96.2303 25.9131C96.6242 26.0303 96.9676 26.1605 97.2605 26.3037C97.5535 26.4437 97.7977 26.6032 97.993 26.7822C98.1883 26.9613 98.3348 27.1647 98.4324 27.3926C98.5301 27.6172 98.5789 27.8727 98.5789 28.1592C98.5789 28.4587 98.5187 28.7288 98.3982 28.9697C98.2778 29.2074 98.1053 29.4108 97.8807 29.5801C97.6593 29.7461 97.3924 29.8747 97.0799 29.9658C96.7706 30.0537 96.4256 30.0977 96.0447 30.0977C95.7029 30.0977 95.366 30.0521 95.034 29.9609C94.7052 29.8698 94.4057 29.7314 94.1355 29.5459C93.8654 29.3571 93.6505 29.1227 93.491 28.8428C93.3315 28.5596 93.2518 28.2292 93.2518 27.8516H94.4773C94.4773 28.0827 94.5164 28.2796 94.5945 28.4424C94.6759 28.6051 94.7882 28.7386 94.9314 28.8428C95.0747 28.9437 95.2407 29.0186 95.4295 29.0674C95.6216 29.1162 95.8266 29.1406 96.0447 29.1406C96.3312 29.1406 96.5704 29.0999 96.7625 29.0186C96.9578 28.9372 97.1043 28.8232 97.202 28.6768C97.2996 28.5303 97.3484 28.361 97.3484 28.1689ZM102.581 23.8379L100.457 30H99.1732L101.849 22.8906H102.669L102.581 23.8379ZM104.359 30L102.23 23.8379L102.137 22.8906H102.962L105.648 30H104.359ZM104.256 27.3633V28.335H100.389V27.3633H104.256ZM106.594 22.8906H109.108C109.649 22.8906 110.109 22.972 110.49 23.1348C110.871 23.2975 111.162 23.5384 111.364 23.8574C111.569 24.1732 111.672 24.5638 111.672 25.0293C111.672 25.3841 111.607 25.6966 111.477 25.9668C111.346 26.237 111.162 26.4648 110.925 26.6504C110.687 26.8327 110.404 26.9743 110.075 27.0752L109.704 27.2559H107.443L107.434 26.2842H109.128C109.421 26.2842 109.665 26.2321 109.86 26.1279C110.056 26.0238 110.202 25.8822 110.3 25.7031C110.401 25.5208 110.451 25.3158 110.451 25.0879C110.451 24.8405 110.402 24.6257 110.305 24.4434C110.21 24.2578 110.064 24.1162 109.865 24.0186C109.667 23.9176 109.414 23.8672 109.108 23.8672H107.819V30H106.594V22.8906ZM110.651 30L108.981 26.8066L110.266 26.8018L111.96 29.9365V30H110.651ZM115.811 23.8379L113.687 30H112.403L115.079 22.8906H115.899L115.811 23.8379ZM117.588 30L115.46 23.8379L115.367 22.8906H116.192L118.878 30H117.588ZM117.486 27.3633V28.335H113.619V27.3633H117.486Z" fill="#263238" fill-opacity="0.8"/>
<path d="M73.0264 43H71.7959V35.8906H73.0264V43ZM79.6846 43H78.4492L75.2803 37.9561V43H74.0449V35.8906H75.2803L78.459 40.9541V35.8906H79.6846V43ZM80.6445 43V35.8906H82.7441C83.3724 35.8906 83.929 36.0306 84.4141 36.3105C84.9023 36.5905 85.2799 36.9876 85.5469 37.502C85.8138 38.0163 85.9473 38.6055 85.9473 39.2695V39.626C85.9473 40.2998 85.8122 40.8923 85.542 41.4033C85.2751 41.9144 84.8926 42.3083 84.3945 42.585C83.8997 42.8617 83.3317 43 82.6904 43H80.6445ZM81.8799 36.8867V42.0137H82.6855C83.3333 42.0137 83.8298 41.8118 84.1748 41.4082C84.5231 41.0013 84.7005 40.4186 84.707 39.6602V39.2646C84.707 38.4932 84.5394 37.904 84.2041 37.4971C83.8688 37.0902 83.3822 36.8867 82.7441 36.8867H81.8799ZM92.3516 39.6309C92.3516 40.3275 92.2311 40.9395 91.9902 41.4668C91.7493 41.9909 91.4043 42.3945 90.9551 42.6777C90.5091 42.9577 89.9948 43.0977 89.4121 43.0977C88.8359 43.0977 88.3216 42.9577 87.8691 42.6777C87.4199 42.3945 87.0716 41.9925 86.8242 41.4717C86.5801 40.9508 86.4564 40.3503 86.4531 39.6699V39.2695C86.4531 38.5762 86.5752 37.9642 86.8193 37.4336C87.0667 36.903 87.4134 36.4977 87.8594 36.2178C88.3086 35.9346 88.8229 35.793 89.4023 35.793C89.9818 35.793 90.4945 35.9329 90.9404 36.2129C91.3896 36.4896 91.7363 36.89 91.9805 37.4141C92.2246 37.9349 92.3483 38.542 92.3516 39.2354V39.6309ZM91.1162 39.2598C91.1162 38.472 90.9665 37.8682 90.667 37.4482C90.3708 37.0283 89.9492 36.8184 89.4023 36.8184C88.8685 36.8184 88.4502 37.0283 88.1475 37.4482C87.848 37.8649 87.695 38.4557 87.6885 39.2207V39.6309C87.6885 40.4121 87.8398 41.016 88.1426 41.4424C88.4486 41.8688 88.8717 42.082 89.4121 42.082C89.959 42.082 90.3789 41.8737 90.6719 41.457C90.9681 41.0404 91.1162 40.4316 91.1162 39.6309V39.2598ZM98.7217 43H97.4863L94.3174 37.9561V43H93.082V35.8906H94.3174L97.4961 40.9541V35.8906H98.7217V43ZM103.837 39.8262H100.917V42.0137H104.33V43H99.6816V35.8906H104.296V36.8867H100.917V38.8496H103.837V39.8262ZM108.552 41.1689C108.552 40.8564 108.441 40.6156 108.22 40.4463C108.002 40.277 107.606 40.1061 107.033 39.9336C106.46 39.7611 106.005 39.569 105.666 39.3574C105.018 38.9505 104.694 38.4199 104.694 37.7656C104.694 37.1927 104.927 36.7207 105.393 36.3496C105.861 35.9785 106.468 35.793 107.214 35.793C107.709 35.793 108.15 35.8841 108.537 36.0664C108.924 36.2487 109.229 36.5091 109.45 36.8477C109.672 37.1829 109.782 37.5557 109.782 37.9658H108.552C108.552 37.5947 108.435 37.305 108.2 37.0967C107.969 36.8851 107.637 36.7793 107.204 36.7793C106.8 36.7793 106.486 36.8656 106.262 37.0381C106.04 37.2106 105.93 37.4515 105.93 37.7607C105.93 38.0212 106.05 38.2393 106.291 38.415C106.532 38.5876 106.929 38.7568 107.482 38.9229C108.036 39.0856 108.48 39.2728 108.815 39.4844C109.151 39.6927 109.396 39.9336 109.553 40.207C109.709 40.4772 109.787 40.7946 109.787 41.1592C109.787 41.7516 109.559 42.2236 109.104 42.5752C108.651 42.9235 108.036 43.0977 107.258 43.0977C106.743 43.0977 106.27 43.0033 105.837 42.8145C105.407 42.6224 105.072 42.3587 104.831 42.0234C104.593 41.6882 104.475 41.2975 104.475 40.8516H105.71C105.71 41.2552 105.843 41.5677 106.11 41.7891C106.377 42.0104 106.76 42.1211 107.258 42.1211C107.688 42.1211 108.01 42.0348 108.225 41.8623C108.443 41.6865 108.552 41.4554 108.552 41.1689ZM111.675 43H110.444V35.8906H111.675V43ZM116.761 41.3447H114.007L113.431 43H112.146L114.832 35.8906H115.94L118.631 43H117.342L116.761 41.3447ZM114.354 40.3486H116.414L115.384 37.3994L114.354 40.3486Z" fill="#263238"/>
</g>
<defs>
<filter id="filter0_d_1_431" x="-1.42188" y="9.40625" width="124.299" height="43.0625" filterUnits="userSpaceOnUse" color-interpolation-filters="sRGB">
<feFlood flood-opacity="0" result="BackgroundImageFix"/>
<feColorMatrix in="SourceAlpha" type="matrix" values="0 0 0 0 0 0 0 0 0 0 0 0 0 0 0 0 0 0 127 0" result="hardAlpha"/>
<feOffset dy="4"/>
<feGaussianBlur stdDeviation="2"/>
<feComposite in2="hardAlpha" operator="out"/>
<feColorMatrix type="matrix" values="0 0 0 0 0 0 0 0 0 0 0 0 0 0 0 0 0 0 0.25 0"/>
<feBlend mode="normal" in2="BackgroundImageFix" result="effect1_dropShadow_1_431"/>
<feBlend mode="normal" in="SourceGraphic" in2="effect1_dropShadow_1_431" result="shape"/>
</filter>
</defs>
</svg>
